<?xml version="1.0" standalone="no"?>
<!DOCTYPE svg PUBLIC "-//W3C//DTD SVG 20010904//EN"
 "http://www.w3.org/TR/2001/REC-SVG-20010904/DTD/svg10.dtd">
<svg version="1.0" xmlns="http://www.w3.org/2000/svg"
 width="300.000000pt" height="169.000000pt" viewBox="0 0 300.000000 169.000000"
 preserveAspectRatio="xMidYMid meet">
<metadata>
Created by potrace 1.10, written by Peter Selinger 2001-2011
</metadata>
<g transform="translate(0.000000,169.000000) scale(0.100000,-0.100000)"
fill="#000000" stroke="none">
<path d="M2546 1643 c21 -63 42 -111 54 -118 9 -6 4 15 -27 104 -25 70 -49 83
-27 14z"/>
<path d="M2570 1687 c0 -1 14 -42 30 -89 17 -48 31 -106 32 -130 3 -41 26 -78
51 -78 6 0 4 6 -5 13 -9 6 -26 55 -38 107 -12 52 -26 105 -31 118 -5 13 -9 32
-9 42 0 11 -7 20 -15 20 -8 0 -15 -1 -15 -3z"/>
<path d="M2654 1514 c4 -9 11 -36 17 -60 6 -24 16 -41 21 -38 10 7 4 42 -15
87 -12 28 -34 39 -23 11z"/>
<path d="M15 1184 c30 -24 97 -54 120 -53 11 0 -4 10 -32 21 -29 11 -53 26
-53 32 0 6 -12 13 -28 14 -26 1 -26 1 -7 -14z"/>
<path d="M0 1159 c0 -6 9 -13 20 -16 11 -3 18 -8 16 -12 -2 -3 7 -7 21 -8 28
-1 23 4 -29 33 -19 9 -28 11 -28 3z"/>
<path d="M727 1163 c-3 -3 -27 -5 -52 -6 -25 0 -48 -4 -51 -9 -3 -5 -12 -4
-20 3 -8 6 -14 7 -14 2 0 -6 -21 -18 -47 -27 -27 -10 -56 -21 -65 -27 -10 -5
-25 -9 -33 -9 -8 0 -15 -5 -15 -11 0 -5 -4 -8 -9 -5 -5 3 -14 -1 -21 -9 -8 -9
-22 -12 -43 -8 l-32 5 25 -18 c14 -10 27 -21 31 -26 3 -4 34 8 70 26 123 66
271 92 342 62 69 -29 126 -116 167 -254 43 -143 13 -241 -93 -302 -58 -33
-177 -74 -248 -85 -108 -16 -191 43 -247 176 -60 144 -66 269 -16 328 13 16
24 31 24 35 0 9 -61 38 -68 32 -3 -3 -1 -6 5 -6 14 0 8 -41 -11 -78 -18 -35
-28 -138 -16 -162 4 -8 10 -31 13 -50 6 -44 12 -60 48 -135 38 -80 81 -131
132 -157 82 -41 233 -20 378 52 56 29 129 94 129 116 0 7 7 20 16 28 8 9 13
20 9 25 -3 6 1 16 9 23 12 11 11 15 -8 26 -19 12 -16 13 24 7 l45 -6 -31 20
c-25 15 -34 30 -44 73 -14 63 -47 151 -72 193 -10 17 -18 38 -18 48 0 9 -3 16
-7 15 -5 -2 -24 13 -43 32 -21 21 -47 36 -65 38 -16 2 -40 10 -51 17 -12 8
-24 11 -27 8z"/>
<path d="M1443 1156 c1 -6 -3 -10 -10 -9 -14 3 -26 -43 -29 -112 -1 -27 -3
-56 -3 -63 -1 -9 -7 -7 -21 6 -11 10 -30 18 -43 17 -12 -1 -24 1 -27 5 -8 11
-50 22 -50 13 0 -4 -30 -8 -68 -9 -37 0 -65 -5 -62 -10 3 -5 9 -8 15 -6 5 2 1
-6 -9 -17 -10 -11 -23 -18 -27 -15 -5 3 -14 -6 -21 -20 -6 -14 -14 -26 -18
-26 -13 0 7 -98 25 -126 11 -16 18 -33 17 -37 -1 -5 2 -6 7 -3 5 4 12 2 15 -3
4 -5 -3 -13 -15 -16 -17 -6 -19 -9 -8 -16 10 -6 5 -9 -15 -9 -16 0 -26 -3 -23
-7 4 -3 2 -12 -4 -20 -9 -9 -8 -13 0 -13 6 0 11 -11 11 -25 0 -15 10 -31 26
-42 26 -17 133 -43 157 -39 6 2 30 6 52 11 45 9 64 21 74 47 6 17 8 17 26 2
17 -13 17 -15 3 -10 -28 9 -21 -8 12 -27 40 -24 99 -19 124 11 18 23 19 23 40
4 30 -28 88 -44 127 -36 39 8 69 9 119 2 48 -6 67 6 81 52 13 42 23 50 32 25
8 -20 79 -63 114 -69 15 -2 30 -5 33 -6 21 -9 110 4 135 18 29 18 31 17 69 -4
66 -38 125 -6 126 69 0 20 4 37 9 37 4 0 28 -25 52 -55 24 -30 48 -55 54 -56
5 0 23 -2 39 -4 36 -5 72 18 84 54 12 34 5 47 -59 123 -27 31 -49 59 -49 62 0
3 16 22 35 43 19 21 35 42 35 46 0 5 3 6 8 4 4 -3 7 9 6 26 -2 50 -4 61 -10
54 -3 -3 -15 3 -27 13 -11 11 -24 17 -29 14 -4 -3 -8 -1 -8 5 0 15 -73 -18
-91 -41 -28 -36 -46 -17 -48 49 -2 109 -7 120 -63 139 -47 15 -50 15 -71 -2
-44 -38 -49 -44 -37 -44 7 0 9 -8 4 -22 -4 -13 -6 -43 -5 -67 1 -40 0 -42 -15
-30 -10 8 -25 13 -36 11 -10 -2 -18 1 -18 7 0 14 -118 5 -144 -12 -12 -8 -36
-18 -54 -22 -18 -3 -30 -11 -26 -16 3 -5 -2 -12 -10 -15 -9 -3 -13 -10 -10
-15 3 -5 -5 -9 -18 -9 -14 0 -30 11 -43 29 -10 16 -22 28 -26 25 -4 -2 -9 3
-13 11 -3 8 -12 12 -20 9 -8 -3 -27 3 -42 13 -19 12 -29 14 -31 6 -3 -9 -12
-9 -30 -2 -15 5 -29 6 -32 1 -3 -4 -25 -14 -48 -20 -24 -7 -43 -17 -43 -22 0
-6 -7 -10 -15 -10 -12 0 -15 13 -15 58 0 94 -18 139 -52 133 -5 0 -8 4 -8 9 0
6 -15 10 -34 8 -19 -1 -34 -7 -33 -12z m85 -293 l2 -263 -45 0 -45 0 0 258 c0
142 3 262 7 266 4 4 23 6 43 4 l35 -3 3 -262z m862 129 c0 -76 3 -142 7 -146
4 -3 40 26 80 66 l72 72 36 -17 c19 -9 35 -23 35 -31 0 -8 -25 -36 -55 -63
-30 -28 -55 -53 -55 -58 0 -4 32 -47 71 -97 39 -49 70 -90 68 -92 -15 -13 -51
-26 -71 -26 -21 0 -54 37 -135 149 -2 2 -12 -4 -23 -14 -16 -14 -20 -31 -20
-77 l0 -59 -47 3 -48 3 -5 250 c-3 138 -4 256 -2 263 3 7 22 12 48 12 l44 0 0
-138z m-162 -38 c33 -13 33 -14 17 -43 -20 -40 -26 -42 -67 -29 -88 27 -154
-24 -145 -111 8 -77 67 -110 151 -83 48 15 48 15 67 -9 10 -13 17 -28 16 -34
-7 -23 -73 -45 -138 -45 -107 0 -174 56 -194 161 -28 151 135 258 293 193z
m-896 6 c47 -13 53 -24 37 -61 -9 -24 -16 -29 -33 -24 -79 23 -136 17 -136
-14 0 -19 14 -27 108 -56 80 -26 110 -82 77 -145 -22 -42 -69 -64 -137 -64
-50 1 -148 27 -148 40 0 3 7 18 15 34 16 32 26 35 53 21 9 -5 38 -12 63 -16
36 -5 49 -3 63 10 25 25 6 41 -74 65 -75 22 -120 62 -120 106 0 37 26 81 58
98 32 18 121 20 174 6z m482 -4 c37 -15 69 -56 80 -100 4 -16 4 -82 0 -147
l-7 -119 -39 0 c-30 0 -41 4 -45 19 -4 18 -6 18 -41 0 -43 -23 -71 -24 -116
-5 -95 40 -101 158 -10 201 28 13 53 16 101 12 61 -5 63 -4 63 19 0 49 -68 68
-137 39 -36 -15 -38 -15 -55 7 -27 35 -22 47 25 68 50 23 134 26 181 6z m-411
-138 c-6 -12 -33 -9 -33 3 0 6 5 20 12 32 l12 22 6 -25 c4 -14 5 -28 3 -32z
m192 19 c0 -26 -20 -25 -23 2 -3 16 1 22 10 19 7 -3 13 -12 13 -21z m668 -33
c-4 -72 -5 -76 -26 -70 -10 2 -30 0 -44 -7 -18 -8 -29 -8 -43 1 -12 7 -21 8
-25 2 -3 -6 -13 -10 -22 -10 -9 0 -14 3 -10 6 3 4 0 13 -8 21 -21 20 -19 59 3
81 15 15 33 18 97 17 l79 -2 -1 -39z"/>
<path d="M1690 747 c-36 -18 -35 -68 1 -81 39 -13 103 20 107 55 3 22 -2 27
-29 33 -43 8 -50 8 -79 -7z"/>
<path d="M126 1107 c23 -7 49 -18 57 -25 9 -8 22 -12 29 -10 18 6 -74 48 -103
47 -17 -1 -13 -4 17 -12z"/>
<path d="M220 1096 c14 -8 41 -17 60 -20 l35 -6 -30 13 c-16 8 -33 12 -37 10
-5 -2 -8 1 -8 6 0 6 -10 11 -22 11 -23 -1 -23 -1 2 -14z"/>
<path d="M643 984 c-3 -8 -1 -26 6 -40 6 -14 11 -27 11 -29 0 -3 -88 -35 -97
-35 -2 0 -3 6 -3 13 0 7 -7 23 -16 35 -13 18 -19 20 -36 11 -20 -11 -21 -30
-4 -70 5 -12 0 -18 -21 -24 -43 -10 -53 -33 -27 -59 11 -12 20 -13 34 -6 32
17 45 11 58 -23 16 -46 16 -47 -19 -59 -25 -8 -30 -15 -27 -37 2 -21 8 -26 28
-25 14 1 33 4 42 8 13 6 19 2 24 -18 8 -32 27 -48 49 -40 14 6 16 15 11 48 -6
41 -6 42 31 56 21 8 40 16 43 18 3 1 12 -14 19 -33 8 -24 19 -35 32 -35 26 0
35 26 21 62 -10 27 -9 29 24 43 37 15 43 35 19 55 -12 10 -21 10 -41 1 -33
-15 -33 -15 -43 12 -23 62 -23 64 9 75 22 8 30 17 30 35 0 29 -23 41 -50 27
-28 -15 -35 -13 -47 20 -12 33 -49 42 -60 14z m77 -90 c0 -8 -6 -14 -13 -14
-19 0 -27 10 -20 25 6 17 33 8 33 -11z m-154 -44 c18 0 18 -14 0 -29 -18 -15
-39 9 -29 35 4 11 8 13 11 6 2 -7 10 -12 18 -12z m133 -41 c7 -23 11 -42 9
-43 -2 -2 -22 -10 -44 -19 l-41 -16 -17 41 c-9 23 -14 43 -13 45 4 3 79 31 88
32 3 1 11 -17 18 -40z m70 -53 c8 -10 9 -16 1 -21 -13 -8 -30 3 -30 21 0 18
14 18 29 0z m-139 -78 c0 -10 -11 -10 -29 1 -9 6 -11 16 -7 27 7 18 8 18 22 0
8 -11 14 -23 14 -28z"/>
<path d="M1710 461 c8 -5 31 -12 50 -16 19 -4 48 -14 64 -22 20 -10 27 -11 24
-3 -4 12 -109 50 -138 50 -13 -1 -13 -2 0 -9z"/>
<path d="M2008 409 c7 -6 229 -74 281 -86 17 -4 22 -2 17 6 -4 6 -13 10 -19 9
-7 -1 -26 6 -44 15 -18 9 -56 22 -85 28 -29 6 -57 15 -63 19 -12 9 -97 18 -87
9z"/>
<path d="M1967 389 c7 -7 24 -13 39 -15 25 -2 56 -13 134 -47 14 -6 34 -11 45
-12 11 -1 38 -5 60 -9 l40 -7 -32 15 c-28 13 -206 65 -240 70 -7 1 -16 5 -19
9 -4 4 -14 7 -23 7 -11 0 -12 -3 -4 -11z"/>
<path d="M2314 292 c4 -6 26 -16 49 -23 23 -6 50 -18 60 -26 9 -9 17 -11 17
-5 0 5 9 8 20 5 11 -3 20 -10 20 -15 0 -6 6 -8 14 -5 7 3 23 -1 35 -9 12 -9
34 -14 49 -12 19 2 -13 16 -108 47 -74 24 -141 46 -149 49 -9 3 -12 1 -7 -6z"/>
<path d="M2510 255 c41 -13 76 -23 77 -21 6 5 -113 46 -133 46 -10 -1 15 -12
56 -25z"/>
<path d="M2624 190 c24 -16 127 -52 132 -47 3 2 -24 14 -58 27 -84 31 -96 34
-74 20z"/>
</g>
</svg>
